# xmcd CD database file
#
# Track frame offsets:
#	150
#	12624
#	42045
#	67003
#	91019
#	115982
#	133039
#	151600
#	169477
#	184458
#	207361
#
# Disc length: 3107 seconds
#
# Revision: 0
# Processed by: cddbd v1.5.2PL0 Copyright (c) Steve Scherf et al.
# Submitted via: CDex 1.70beta2
#
DISCID=970c210b
DTITLE=Mraz and Viklicky Duo Art - Together Again
DYEAR=2014
DGENRE=Jazz
TTITLE0=Dear Lover
TTITLE1=Poem
TTITLE2=Theme From 5th Part Of Sinfonietta
TTITLE3=A Bird Flew By
TTITLE4=U Dunaja, u Prespurka
TTITLE5=Austerlitz
TTITLE6=Moon, Sleeping In The Cradle
TTITLE7=Thank You, Laca
TTITLE8=Up On A Fir Tree
TTITLE9=Saw Grey Pidgeon
TTITLE10=In Holomoc Town
EXTD=YEAR: 2014
EXTT0=
EXTT1=
EXTT2=
EXTT3=
EXTT4=
EXTT5=
EXTT6=
EXTT7=
EXTT8=
EXTT9=
EXTT10=
PLAYORDER=
